<svg xmlns="http://www.w3.org/2000/svg" viewBox="0 0 64 64"><rect width="64" height="64" rx="12" fill="#FFC20E"/><path d="M22.667,10H36.5A1.5,1.5 0 0 1 38,11.5V21.167A1.5,1.5 0 0 1 36.5,22.667H10A0,0 0 0 1 10,22.667V22.667A12.667,12.667 0 0 1 22.667,10ZM42.5,10H52.5A1.5,1.5 0 0 1 54,11.5V21.167A1.5,1.5 0 0 1 52.5,22.667H42.5A1.5,1.5 0 0 1 41,21.167V11.5A1.5,1.5 0 0 1 42.5,10ZM11.5,25.667H21.167A1.5,1.5 0 0 1 22.667,27.167V36.833A1.5,1.5 0 0 1 21.167,38.333H11.5A1.5,1.5 0 0 1 10,36.833V27.167A1.5,1.5 0 0 1 11.5,25.667ZM10,41.333H28.5A1.5,1.5 0 0 1 30,42.833V52.5A1.5,1.5 0 0 1 28.5,54H22.667A12.667,12.667 0 0 1 10,41.333V41.333A0,0 0 0 1 10,41.333ZM34.5,41.333H52.5A1.5,1.5 0 0 1 54,42.833V52.5A1.5,1.5 0 0 1 52.5,54H34.5A1.5,1.5 0 0 1 33,52.5V42.833A1.5,1.5 0 0 1 34.5,41.333Z" fill="#16212B"/></svg>